<svg id="Слой_1" data-name="Слой 1" xmlns="http://www.w3.org/2000/svg" viewBox="0 0 500 500"><defs><style>.cls-1{fill:#fff;}.cls-2{fill:#f40604;}</style></defs><rect class="cls-1" width="500" height="500"/><path class="cls-2" d="M162.49,238.56c0-.15,0-.3.08-.45a6.1,6.1,0,0,1,.12-1.28c0-.11,0-.21.05-.32v-.06a5.93,5.93,0,0,1,.1-.72c.47-3.7,1.47-7.34,1.46-11.08a5.32,5.32,0,0,1,.18-1.36,30.85,30.85,0,0,1,1-8.09l-36-.7s-21-3-37-20c0,0-27-22-57,3,0,0-12.09,12.09-12.95,28.19,0,.6-.05,1.2-.05,1.81,0,0,36-31,51-12,0,0,31,29-23.5,53.5,0,0,28,16,48-11,0,0,11.5-13.5,50.5-10.5l12.45.26,0-.28a3.88,3.88,0,0,1,.3-1.63,5.36,5.36,0,0,1,.14-1.66c.09-.35.16-.71.25-1.07a4.16,4.16,0,0,1,.09-.79,5.7,5.7,0,0,1,.28-2.17A5.27,5.27,0,0,1,162.49,238.56Z"/><path class="cls-2" d="M468.66,230.78S461.5,196.5,425.5,204.5c0,0-4.43-.93-22.72,12.54,0,0-1.28,6.46-63.28,1.46l-138.71-2.68a5.36,5.36,0,0,1,.25,1.66c0,10.7.55,21.08,4.17,31.15L389.5,252.5s18,4,23,12c0,0,21,17,40,2a37.07,37.07,0,0,0,16-34Z"/><path class="cls-1" d="M388,237c2-9-10-10-10-10l-223-4c-21-7-22,7-22,7-1,13,19,11,19,11l13,.23a4.83,4.83,0,0,1,9,.16L375,245h2C391,245,388,237,388,237Z"/><path class="cls-2" d="M97.82,180.34a2.69,2.69,0,0,0,3.83-1c7.79-15.36,51.18-91.19,149.93-94.08,0,0,113.7-3.66,161.74,106.74a2.68,2.68,0,0,0,3.53,1.4c4.15-1.79,12.94-4.93,21.18-3.7a2.65,2.65,0,0,0,2.93-3.33c-.9-3.26-3-8.86-7.58-18.18a2.62,2.62,0,0,1,.46-3L449.27,149a2.64,2.64,0,0,0,.31-3.25l-16.81-26.32a2.67,2.67,0,0,0-3.33-1l-21.17,9.24a2.69,2.69,0,0,1-3.19-.8,185.06,185.06,0,0,0-18.62-20.17,2.64,2.64,0,0,1-.7-2.83l7.77-21.41a2.63,2.63,0,0,0-1-3.1L365.87,61.74a2.69,2.69,0,0,0-3.43.38l-16,16.7a2.69,2.69,0,0,1-3.45.37A77.89,77.89,0,0,0,319.45,69a2.65,2.65,0,0,1-2-2.38l-1.73-24.94a2.67,2.67,0,0,0-2.29-2.44l-27.08-3.92a2.67,2.67,0,0,0-2.76,1.41L273.16,56.75a2.71,2.71,0,0,1-2.84,1.4c-5.18-.89-19.53-2.9-26.84.64a2.7,2.7,0,0,1-3.72-1.38L231.64,37a2.67,2.67,0,0,0-2.95-1.63l-32.88,5.73a2.68,2.68,0,0,0-2.21,2.62V66.52a2.66,2.66,0,0,1-1.89,2.53c-4.58,1.39-16.46,5.25-24.62,10.32a2.68,2.68,0,0,1-3.26-.32L146.76,63a2.7,2.7,0,0,0-3.33-.28L116.77,80.31a2.64,2.64,0,0,0-1,3.19l8.52,21.14a2.63,2.63,0,0,1-.82,3.07c-3.86,3-13.81,11.12-18.53,18.07a2.69,2.69,0,0,1-3.12,1l-21.26-7.59a2.68,2.68,0,0,0-3.07.94L58.83,145.67a2.64,2.64,0,0,0,.28,3.43l16.65,16.51a2.63,2.63,0,0,1,.18,3.55l0,.07a2.65,2.65,0,0,0,1.89,4.32A45.07,45.07,0,0,1,97.82,180.34Z"/><path class="cls-2" d="M431.65,284.63c6.76.46,16.12-.23,24.83-5.44a10.9,10.9,0,0,1,10.3-.41h0a11,11,0,0,1,6,12.12l-3.46,16.83a11,11,0,0,1-10.77,8.77h-8.79a11,11,0,0,0-10.65,8.3,53.17,53.17,0,0,1-4.86,12.62,11,11,0,0,0,1.38,12.84l7,7.77a11,11,0,0,1,1.15,13.24l-10.32,16.34a11,11,0,0,1-13.57,4.25l-9.29-3.92a11,11,0,0,0-12.81,3.19,55,55,0,0,1-9.51,9.27A10.93,10.93,0,0,0,384.64,413l3.87,10.46a11,11,0,0,1-4.14,12.9l-14.09,9.57a11,11,0,0,1-13.13-.59l-9.65-7.9a11,11,0,0,0-12.17-1.17,76.1,76.1,0,0,1-12.7,5.4,11,11,0,0,0-7.69,9.66l-.85,11.9a11,11,0,0,1-8.74,10l-17.76,3.65a11,11,0,0,1-11.94-5.64l-4.89-9.29a11,11,0,0,1-1.26-5.12v-16a10.88,10.88,0,0,1,2.65-7.14,8.3,8.3,0,0,0,1.33-2.2,11.24,11.24,0,0,1,8.5-6.92c15.85-2.6,54.26-12,90-45.08,0,0,37.46-34.35,48.25-86.14A10.93,10.93,0,0,1,431.65,284.63Z"/><path class="cls-2" d="M235.19,431.76a4.89,4.89,0,0,0,.33.73,8.82,8.82,0,0,1,1.23,3.53l1.54,15.36a8.32,8.32,0,0,1-.63,4.09l-7.14,16.8a8.35,8.35,0,0,1-9.29,4.92l-22-4.36a8.33,8.33,0,0,1-6.72-8.18V449.87a8.31,8.31,0,0,0-6.18-8.05,80,80,0,0,1-17.64-6.72,8.3,8.3,0,0,0-10.07,1.55l-9.28,9.77a8.33,8.33,0,0,1-10.66,1.19l-18.54-12.36a8.34,8.34,0,0,1-3.12-10l5.12-12.79a8.34,8.34,0,0,0-2.53-9.59,73.15,73.15,0,0,1-12.84-13.06A8.3,8.3,0,0,0,97.08,387l-13.3,5.12a8.35,8.35,0,0,1-10-3.22L62.12,371a8.34,8.34,0,0,1,.94-10.32l10.27-10.78a8.33,8.33,0,0,0,.7-10.65,54,54,0,0,1-8.15-16.68,8.37,8.37,0,0,0-8-6.1H44.77A8.34,8.34,0,0,1,36.63,310l-4.77-21.4a8.31,8.31,0,0,1,4.08-9.1h0a8.29,8.29,0,0,1,7.17-.44c7.21,2.92,23.54,8.83,33.72,7a8.28,8.28,0,0,1,9.36,5.75c6.36,20.62,23.58,69.8,47.47,85.71a7.93,7.93,0,0,1,1.48,1.23c4.85,5.13,37.19,37.35,93.48,47.81A8.62,8.62,0,0,1,235.19,431.76Z"/><path class="cls-2" d="M197.83,169.75c2.06,11.57-5,11.1-6.76,10.82a5.7,5.7,0,0,0-.92-.07H172.84a5.9,5.9,0,0,0-5.28,3.23c-8.31,16.41-16.06,63.77-16.06,63.77-4.66,19.58,25.89,52.64,30,57a5.85,5.85,0,0,0,1,.84c31.12,20.63,28.92,54.1,26.65,67.17a5.93,5.93,0,0,0,4.51,6.79l4.79,1.1a5.93,5.93,0,0,0,7.17-6.8c-3.75-21.67.3-31.31,2.94-35.06a6,6,0,0,1,3.54-2.35,15.07,15.07,0,0,0,7.43-4.66,5.94,5.94,0,0,0-1.34-9.11c-34-20.41-63-49.25-67-53.37a7.28,7.28,0,0,0-1.11-.88c-4.73-3.19-6.33-11-6.19-20.62l0-.09a5.68,5.68,0,0,1,0-.59c.42-19.18,7.54-45,10.39-54.57a5.92,5.92,0,0,1,5.11-4.2l27.06-2.62c34.35-2.51,31.5,11.12,29.67,15.61a5.19,5.19,0,0,0-.5,2.12c.12,4.68-19.07,6.41-29.15,7A5.91,5.91,0,0,0,201,216.6h0a6.15,6.15,0,0,1,.07.88v.09l1.46,18.93c-.06.31-.11.61-.16.92A65,65,0,0,0,205,248.06a5.67,5.67,0,0,0,.76,1.49c7.28,10.1,23.58,16.61,28.73,18.47a5.4,5.4,0,0,0,2.35.34c4.65-.48,18.8,8.84,28.62,15.8A5.93,5.93,0,0,0,274.8,279l-.05-1a5.92,5.92,0,0,1,4-5.94c50.31-16.94,51-10.57,50.11-8.25a5.73,5.73,0,0,0-.38,2.09c-.35,60.22-22.87,73.33-27.26,75.31a5.47,5.47,0,0,1-1.33.37c-8.71,1.48-4.17,20-1,30.06a5.91,5.91,0,0,0,8.14,3.59l14.48-6.72c8.3-2.77,16.6-145.91,17.84-168.12a5.89,5.89,0,0,0-2-4.79c-53.86-46.33-115.87-37-134.95-32.63A5.94,5.94,0,0,0,197.83,169.75Z"/><path class="cls-1" d="M206,178s24,1,27,3V166.22l-27,3.13Z"/><polygon class="cls-1" points="214 216 214 237.04 233 237.04 233 213.96 214 216"/><path class="cls-1" d="M243.52,166.22,240.78,237,261,241s9-25,10-70Z"/><path class="cls-1" d="M271,242.91s9,9.09,19,3.09l18-61-25-11.39Z"/><path class="cls-1" d="M316,189l16,11-16,52.3s-7.48,4.8-15.74-4.25Z"/><polygon class="cls-1" points="415 248 415 226.09 434 216 453 227 453 248 436 259 415 248"/></svg>